<svg width="813" height="279" viewBox="0 0 813 279" fill="none" xmlns="http://www.w3.org/2000/svg">
<path fill-rule="evenodd" clip-rule="evenodd" d="M290.644 68.3867C274.711 68.3867 261.323 57.489 257.527 42.7417H218.336C209.979 42.7417 202.846 48.7839 201.473 57.0274L200.067 65.4603C198.733 73.4658 194.683 80.4327 188.955 85.4834C194.683 90.534 198.733 97.5009 200.067 105.506L201.473 113.939C202.846 122.183 209.979 128.225 218.336 128.225H223.334C227.129 113.478 240.518 102.58 256.45 102.58C275.335 102.58 290.644 117.889 290.644 136.773C290.644 155.658 275.335 170.967 256.45 170.967C240.518 170.967 227.129 160.069 223.334 145.322H218.336C201.621 145.322 187.357 133.237 184.609 116.75L183.202 108.317C181.829 100.074 174.697 94.0317 166.339 94.0317H152.793C148.998 108.779 135.609 119.677 119.677 119.677C103.744 119.677 90.356 108.779 86.5605 94.0317H67.3096C63.5142 108.779 50.126 119.677 34.1934 119.677C15.3089 119.677 0 104.368 0 85.4834C0 66.5987 15.3089 51.29 34.1934 51.29C50.126 51.29 63.5142 62.1877 67.3096 76.9351H86.5605C90.356 62.1877 103.744 51.29 119.677 51.29C135.609 51.29 148.998 62.1877 152.793 76.9351H166.339C174.697 76.9351 181.829 70.8928 183.202 62.6494L184.609 54.2164C187.357 37.7295 201.621 25.645 218.336 25.645H257.527C261.323 10.8977 274.711 0 290.644 0C309.528 0 324.837 15.3087 324.837 34.1934C324.837 53.0781 309.528 68.3867 290.644 68.3867ZM290.644 51.29C300.085 51.29 307.74 43.635 307.74 34.1934C307.74 24.7517 300.085 17.0967 290.644 17.0967C281.202 17.0967 273.547 24.7517 273.547 34.1934C273.547 43.635 281.202 51.29 290.644 51.29ZM34.1934 102.58C43.635 102.58 51.29 94.925 51.29 85.4834C51.29 76.0417 43.635 68.3867 34.1934 68.3867C24.7511 68.3867 17.0967 76.0417 17.0967 85.4834C17.0967 94.925 24.7511 102.58 34.1934 102.58ZM136.773 85.4834C136.773 94.925 129.118 102.58 119.677 102.58C110.235 102.58 102.58 94.925 102.58 85.4834C102.58 76.0417 110.235 68.3867 119.677 68.3867C129.118 68.3867 136.773 76.0417 136.773 85.4834ZM273.547 136.773C273.547 146.215 265.892 153.87 256.45 153.87C247.009 153.87 239.354 146.215 239.354 136.773C239.354 127.332 247.009 119.677 256.45 119.677C265.892 119.677 273.547 127.332 273.547 136.773Z" fill="#EA4B71"/>
<path fill-rule="evenodd" clip-rule="evenodd" d="M530.021 73.9248V73.1113C535.986 70.1236 541.952 64.9633 541.952 54.7794C541.952 40.1133 529.886 31.2871 513.211 31.2871C496.128 31.2871 483.927 40.6561 483.927 55.0501C483.927 64.8279 489.62 70.1236 495.858 73.1113V73.9248C488.943 76.3696 480.673 83.7027 480.673 95.924C480.673 110.724 492.874 121.045 513.075 121.045C533.275 121.045 545.07 110.724 545.07 95.924C545.07 83.7027 536.935 76.505 530.021 73.9248ZM513.075 43.7805C519.854 43.7805 524.869 48.1245 524.869 55.4575C524.869 62.7906 519.717 67.136 513.075 67.136C506.432 67.136 500.873 62.7906 500.873 55.4575C500.873 47.9891 506.161 43.7805 513.075 43.7805ZM513.075 108.008C505.211 108.008 498.84 102.985 498.84 94.4294C498.84 86.6903 504.127 80.8504 512.939 80.8504C521.617 80.8504 526.904 86.5536 526.904 94.7015C526.904 102.985 520.803 108.008 513.075 108.008Z" fill="#101330"/>
<path d="M565.986 119.687H583.339V82.8874C583.339 70.8014 590.661 65.5057 598.93 65.5057C607.065 65.5057 613.436 70.9382 613.436 82.0724V119.687H630.789V78.542C630.789 60.7529 620.486 50.4336 604.354 50.4336C594.185 50.4336 588.491 54.5069 584.423 59.8026H583.339L581.847 51.7913H565.986V119.687Z" fill="#101330"/>
<path d="M412.372 119.687H395.019V51.7913H410.88L412.372 59.8026H413.456C417.523 54.5069 423.218 50.4336 433.386 50.4336C449.518 50.4336 459.822 60.7529 459.822 78.542V119.687H442.469V82.0724C442.469 70.9382 436.098 65.5057 427.962 65.5057C419.693 65.5057 412.372 70.8014 412.372 82.8874V119.687Z" fill="#101330"/>
<path d="M424.936 257.241C420.321 257.241 416.031 256.396 412.066 254.706C408.166 253.016 404.785 250.676 401.925 247.685C399.13 244.63 397.083 241.088 395.783 237.058L406.801 232.28C408.556 236.44 411.091 239.723 414.406 242.128C417.721 244.468 421.459 245.638 425.619 245.638C427.959 245.638 429.974 245.28 431.664 244.565C433.419 243.785 434.752 242.745 435.662 241.445C436.637 240.145 437.124 238.585 437.124 236.765C437.124 234.62 436.474 232.865 435.174 231.5C433.939 230.07 432.054 228.965 429.519 228.185L415.576 223.7C409.921 221.945 405.663 219.312 402.803 215.802C399.943 212.292 398.513 208.164 398.513 203.419C398.513 199.259 399.52 195.586 401.535 192.401C403.615 189.216 406.476 186.746 410.116 184.991C413.821 183.171 418.046 182.261 422.791 182.261C427.146 182.261 431.144 183.041 434.784 184.601C438.424 186.096 441.544 188.208 444.144 190.938C446.81 193.603 448.792 196.756 450.092 200.396L439.172 205.271C437.742 201.631 435.597 198.836 432.736 196.886C429.876 194.871 426.561 193.864 422.791 193.864C420.581 193.864 418.631 194.254 416.941 195.034C415.251 195.749 413.918 196.789 412.943 198.154C412.033 199.454 411.578 201.014 411.578 202.834C411.578 204.849 412.228 206.636 413.528 208.197C414.828 209.692 416.811 210.862 419.476 211.707L432.834 215.899C438.619 217.784 442.942 220.384 445.802 223.7C448.727 227.015 450.19 231.11 450.19 235.985C450.19 240.145 449.117 243.818 446.972 247.003C444.827 250.188 441.869 252.691 438.099 254.511C434.329 256.331 429.941 257.241 424.936 257.241ZM460.856 256.071V203.029H472.849V214.827L471.874 213.072C473.109 209.107 475.027 206.344 477.627 204.784C480.292 203.224 483.477 202.444 487.182 202.444H490.302V213.754H485.72C482.08 213.754 479.154 214.892 476.944 217.167C474.734 219.377 473.629 222.497 473.629 226.527V256.071H460.856ZM497.124 256.071V203.029H509.897V256.071H497.124ZM497.124 197.081V183.431H509.897V197.081H497.124ZM539.69 256.071V183.431H552.95V244.37H584.054V256.071H539.69ZM607.446 257.241C603.74 257.241 600.523 256.623 597.793 255.388C595.063 254.153 592.95 252.398 591.455 250.123C589.96 247.783 589.212 245.085 589.212 242.03C589.212 239.105 589.862 236.505 591.162 234.23C592.462 231.89 594.478 229.94 597.208 228.38C599.938 226.82 603.383 225.715 607.543 225.065L624.899 222.237V231.987L609.981 234.523C607.446 234.978 605.56 235.79 604.325 236.96C603.09 238.13 602.473 239.658 602.473 241.543C602.473 243.363 603.155 244.825 604.52 245.93C605.95 246.97 607.706 247.49 609.786 247.49C612.451 247.49 614.791 246.938 616.806 245.833C618.886 244.663 620.478 243.07 621.584 241.055C622.754 239.04 623.339 236.83 623.339 234.425V220.774C623.339 218.499 622.429 216.614 620.608 215.119C618.853 213.559 616.513 212.779 613.588 212.779C610.858 212.779 608.421 213.527 606.275 215.022C604.195 216.452 602.668 218.369 601.693 220.774L591.26 215.704C592.3 212.909 593.925 210.504 596.135 208.489C598.41 206.409 601.075 204.784 604.13 203.614C607.186 202.444 610.501 201.859 614.076 201.859C618.431 201.859 622.266 202.671 625.581 204.296C628.896 205.856 631.464 208.067 633.284 210.927C635.169 213.722 636.112 217.004 636.112 220.774V256.071H624.021V247.003L626.751 246.808C625.386 249.083 623.761 251.001 621.876 252.561C619.991 254.056 617.846 255.226 615.441 256.071C613.036 256.851 610.371 257.241 607.446 257.241ZM647.716 256.071V203.029H659.709V213.462L658.734 211.609C659.969 208.424 661.984 206.019 664.779 204.394C667.639 202.704 670.954 201.859 674.724 201.859C678.625 201.859 682.07 202.704 685.06 204.394C688.115 206.084 690.487 208.457 692.178 211.512C693.868 214.502 694.713 217.979 694.713 221.945V256.071H681.94V224.967C681.94 222.627 681.485 220.612 680.575 218.922C679.665 217.232 678.397 215.932 676.772 215.022C675.212 214.047 673.359 213.559 671.214 213.559C669.134 213.559 667.282 214.047 665.657 215.022C664.031 215.932 662.764 217.232 661.854 218.922C660.944 220.612 660.489 222.627 660.489 224.967V256.071H647.716ZM705.312 256.071V182.261H718.085V230.622L713.21 229.16L738.171 203.029H754.064L734.466 224.382L754.454 256.071H739.828L722.473 228.575L730.078 227.015L714.088 244.175L718.085 236.375V256.071H705.312ZM777.473 257.241C773.768 257.241 770.55 256.623 767.82 255.388C765.09 254.153 762.978 252.398 761.483 250.123C759.987 247.783 759.24 245.085 759.24 242.03C759.24 239.105 759.89 236.505 761.19 234.23C762.49 231.89 764.505 229.94 767.235 228.38C769.965 226.82 773.41 225.715 777.571 225.065L794.926 222.237V231.987L780.008 234.523C777.473 234.978 775.588 235.79 774.353 236.96C773.118 238.13 772.5 239.658 772.5 241.543C772.5 243.363 773.183 244.825 774.548 245.93C775.978 246.97 777.733 247.49 779.813 247.49C782.478 247.49 784.818 246.938 786.833 245.833C788.914 244.663 790.506 243.07 791.611 241.055C792.781 239.04 793.366 236.83 793.366 234.425V220.774C793.366 218.499 792.456 216.614 790.636 215.119C788.881 213.559 786.541 212.779 783.616 212.779C780.886 212.779 778.448 213.527 776.303 215.022C774.223 216.452 772.695 218.369 771.72 220.774L761.288 215.704C762.328 212.909 763.953 210.504 766.163 208.489C768.438 206.409 771.103 204.784 774.158 203.614C777.213 202.444 780.528 201.859 784.103 201.859C788.459 201.859 792.294 202.671 795.609 204.296C798.924 205.856 801.491 208.067 803.312 210.927C805.197 213.722 806.139 217.004 806.139 220.774V256.071H794.049V247.003L796.779 246.808C795.414 249.083 793.789 251.001 791.904 252.561C790.019 254.056 787.873 255.226 785.468 256.071C783.063 256.851 780.398 257.241 777.473 257.241Z" fill="url(#paint0_linear_4038_11)"/>
<defs>
<linearGradient id="paint0_linear_4038_11" x1="391.98" y1="187.54" x2="824.519" y2="260.775" gradientUnits="userSpaceOnUse">
<stop stop-color="#F2417D"/>
<stop offset="0.616099" stop-color="#FD4F51"/>
<stop offset="1" stop-color="#BA377E"/>
</linearGradient>
</defs>
</svg>
